<svg width="195" height="159" viewBox="0 0 195 159" fill="none" xmlns="http://www.w3.org/2000/svg">
<rect width="195" height="159" fill="white"/>
<path d="M97.3543 65.3582C98.0377 65.0283 98.7312 64.7084 99.4347 64.3885C98.7412 64.0586 98.0477 63.7187 97.3442 63.4088C96.6508 63.7287 95.9372 64.0686 95.2538 64.3885C94.8216 64.5884 94.4095 64.7983 93.9874 65.0083C88.0477 67.9173 82.4597 71.1363 76.5703 74.0953C73.5753 70.7464 69.726 67.7974 64.6506 65.5981C58.8215 63.0689 51.6154 61.8193 44.8013 62.9689C38.5601 64.0186 32.8213 66.9376 30.3188 71.0063C28.9419 73.2356 28.4193 75.9947 30.148 78.214C31.8565 80.3932 35.555 81.6828 38.8415 82.4926C45.9068 84.242 53.9471 83.7322 60.9119 82.0227C66.2989 80.7031 71.1934 78.6938 75.8366 76.4445C78.1582 79.4036 79.8165 82.6225 81.1331 85.8215C85.4748 96.408 87.3241 107.654 85.5552 118.591C85.103 121.35 84.4095 124.079 83.4447 126.778C82.5602 129.267 81.5653 131.826 79.9974 134.166C78.6205 136.195 76.6808 138.204 73.6456 139.214C71.1733 140.034 67.8466 140.184 65.5149 139.064C62.7009 137.714 62.6305 134.995 62.0978 132.916C61.5953 130.937 60.3089 128.717 57.5853 127.688C54.2988 126.438 51.2033 127.838 48.6305 129.207C45.1631 131.047 41.7058 132.886 38.2384 134.715C35.756 136.035 32.761 137.625 29.5349 136.435C26.952 135.485 25.4042 133.496 24.751 131.626C23.4645 127.978 25.1831 123.959 27.4846 120.66C32.5198 113.462 41.0927 107.564 44.8917 99.9468C45.7762 98.1574 46.339 96.308 46.4998 94.4187C46.5902 93.379 44.2083 93.389 44.1179 94.4187C43.3842 102.766 34.2686 109.444 28.2384 116.312C25.2334 119.73 22.7107 123.419 22.1077 127.418C21.5248 131.357 23.2233 136.485 29.2736 138.124C32.7108 139.064 35.9369 137.944 38.6606 136.515C42.2083 134.665 45.7058 132.776 49.2335 130.907C50.6908 130.137 52.2988 129.067 54.1883 128.837C55.6757 128.647 56.9923 129.207 57.8667 129.987C60.0375 131.876 59.8064 134.386 60.6406 136.595C61.4647 138.804 63.5149 140.644 66.8818 141.253C69.8768 141.793 73.2838 141.353 75.8768 140.224C78.8416 138.934 80.8517 136.845 82.2386 134.705C83.8065 132.276 84.8819 129.677 85.7864 127.108C89.7362 115.872 89.2236 104.105 85.9874 92.8192C84.319 87.0111 82.0075 80.8431 77.7562 75.5248C78.9622 74.915 80.1482 74.2952 81.3341 73.6754C86.6306 70.8664 91.8568 67.9973 97.3643 65.3882L97.3543 65.3582ZM55.0827 81.4729C48.2787 82.4426 40.2988 82.1027 34.55 79.1836C28.5198 76.1146 32.3088 70.3265 36.8716 67.5574C41.6857 64.6484 48.3591 63.5687 54.6204 64.4884C61.3943 65.4781 67.2637 68.3772 71.5451 71.986C72.6909 72.9557 73.726 73.9753 74.6607 75.045C68.721 77.9241 62.2888 80.4532 55.0727 81.4829L55.0827 81.4729Z" fill="#10AFAA" stroke="#10AFAA" stroke-width="3" stroke-miterlimit="10"/>
<path d="M170.158 121.501C165.56 113.844 156.416 107.846 152.22 100.07C151.236 98.2404 150.573 96.3412 150.393 94.3921C150.302 93.3625 147.923 93.3525 148.014 94.3921C148.726 102.519 156.777 109.036 162.89 115.643C165.892 118.882 168.672 122.31 169.716 126.109C170.228 127.948 170.369 129.957 169.676 131.776C168.963 133.626 167.367 135.605 164.747 136.484C161.445 137.584 158.433 135.845 155.964 134.525C152.501 132.686 149.048 130.847 145.585 129.018C143.035 127.668 139.863 126.409 136.721 127.748C134.041 128.888 132.866 131.087 132.374 133.106C131.872 135.175 131.722 137.884 128.811 139.143C126.402 140.183 123.129 139.983 120.67 139.113C117.668 138.054 115.751 135.995 114.426 133.955C112.89 131.596 111.886 129.028 111.013 126.519C107.259 115.733 107.711 104.408 110.762 93.5724C112.368 87.8848 114.537 81.7074 118.692 76.4296C120.218 77.1693 121.774 77.889 123.38 78.5587C129.945 81.3375 137.283 83.3567 145.103 83.5366C148.767 83.6166 152.521 83.2867 155.964 82.3971C159.226 81.5574 162.92 80.228 164.496 77.9889C166.082 75.7299 165.47 73.021 164.065 70.792C162.79 68.7928 160.672 67.0635 158.142 65.7341C152.812 62.9253 145.996 61.9457 139.421 62.8853C132.394 63.8849 126.121 66.8636 121.613 70.5821C120.268 71.6916 119.064 72.8611 117.98 74.0806C115.139 72.6412 112.358 71.1218 109.578 69.6424C106.215 67.8432 102.812 66.0639 99.3086 64.3847C98.616 64.0548 97.9234 63.7149 97.2207 63.4051C96.5281 63.7249 95.8153 64.0648 95.1328 64.3847C95.8354 64.7045 96.5381 65.0244 97.2307 65.3542C99.4793 66.4238 101.698 67.5333 103.866 68.6629C108.202 70.9119 112.398 73.2909 116.785 75.5C114.446 78.4488 112.73 81.6174 111.374 84.8361C106.737 95.7715 104.789 107.517 106.687 118.842C107.158 121.691 107.871 124.529 108.875 127.328C109.788 129.887 110.863 132.476 112.459 134.885C113.884 137.034 115.982 139.143 119.034 140.363C121.644 141.402 124.996 141.802 127.927 141.202C131.28 140.513 133.218 138.613 133.99 136.384C134.743 134.195 134.573 131.666 136.841 129.847C137.815 129.067 139.14 128.618 140.656 128.888C142.593 129.227 144.229 130.347 145.765 131.157C149.208 132.986 152.631 134.845 156.115 136.654C158.875 138.084 162.127 139.043 165.52 138.044C168.401 137.194 170.329 135.315 171.433 133.396C173.611 129.627 172.356 125.159 170.168 121.531L170.158 121.501ZM130.828 67.0835C136.38 64.6246 143.246 63.3751 149.76 64.6246C155.613 65.7541 160.983 68.7328 162.599 72.8211C163.051 73.9706 163.252 75.2301 162.82 76.3996C162.378 77.6291 161.184 78.5687 159.688 79.2884C156.787 80.6778 153.274 81.4875 149.76 81.7873C142.392 82.4271 134.964 81.0177 128.48 78.6886C125.478 77.6191 122.637 76.3596 119.867 75.0202C122.627 71.8915 126.171 69.1427 130.818 67.0835H130.828Z" fill="#10AFAA" stroke="#10AFAA" stroke-width="3" stroke-miterlimit="10"/>
<path d="M50.4299 38.3669C50.4299 49.1104 59.0963 57.8581 69.7886 57.9925V58.0043H70.0386C80.8558 58.0043 89.6473 49.2041 89.6473 38.3772C89.6473 27.5501 80.8455 18.75 70.0386 18.75C59.2319 18.75 50.4299 27.5398 50.4299 38.3669ZM55.0097 38.3772C55.0097 30.0822 61.7521 23.3337 70.0386 23.3337C78.3251 23.3337 85.0675 30.0822 85.0675 38.3772C85.0675 46.6721 78.3251 53.4206 70.0386 53.4206C61.7521 53.4206 55.0097 46.6721 55.0097 38.3772Z" fill="#10AFAA" stroke="#10AFAA" stroke-width="0.5"/>
<path d="M100.619 38.3669C100.619 49.1104 109.285 57.8581 119.978 57.9925V58.0043H120.228C131.045 58.0043 139.836 49.2041 139.836 38.3772C139.836 27.5501 131.035 18.75 120.228 18.75C109.421 18.75 100.619 27.5398 100.619 38.3669ZM105.199 38.3772C105.199 30.0822 111.941 23.3337 120.228 23.3337C128.514 23.3337 135.257 30.0822 135.257 38.3772C135.257 46.6721 128.514 53.4206 120.228 53.4206C111.941 53.4206 105.199 46.6721 105.199 38.3772Z" fill="#10AFAA" stroke="#10AFAA" stroke-width="0.5"/>
</svg>
